<svg width="800" height="450" xmlns="http://www.w3.org/2000/svg">
  <rect width="800" height="450" fill="#f9fafb"/>
  <rect x="20" y="20" width="760" height="410" fill="white" rx="8"/>
  <rect x="40" y="40" width="720" height="60" fill="#1f2937" rx="4"/>
  <text x="400" y="75" text-anchor="middle" fill="white" font-size="24" font-weight="600">Image Format Converter</text>
  
  <rect x="60" y="130" width="680" height="80" fill="#e5e7eb" rx="4"/>
  <rect x="80" y="145" width="280" height="50" fill="#f9fafb" rx="4" stroke="#3b82f6" stroke-width="2"/>
  <rect x="400" y="145" width="280" height="50" fill="#f9fafb" rx="4" stroke="#10b981" stroke-width="2"/>
  
  <text x="140" y="165" text-anchor="middle" fill="#3b82f6" font-size="14" font-weight="600">JPG</text>
  <text x="460" y="165" text-anchor="middle" fill="#10b981" font-size="14" font-weight="600">PNG</text>
  
  <rect x="80" y="220" width="680" height="2" fill="#3b82f6"/>
  <rect x="80" y="225" width="280" height="40" fill="#3b82f6" rx="2"/>
  <text x="140" y="250" text-anchor="middle" fill="white" font-size="12">Original</text>
  
  <rect x="400" y="225" width="280" height="40" fill="#10b981" rx="2"/>
  <text x="460" y="250" text-anchor="middle" fill="white" font-size="12">Converted</text>
  
  <rect x="120" y="285" width="100" height="60" fill="#10b981" rx="4"/>
  <rect x="240" y="285" width="100" height="60" fill="#10b981" rx="4"/>
  <rect x="360" y="285" width="100" height="60" fill="#10b981" rx="4"/>
  <rect x="480" y="285" width="100" height="60" fill="#10b981" rx="4"/>
  <rect x="600" y="285" width="100" height="60" fill="#10b981" rx="4"/>
  
  <rect x="80" y="370" width="680" height="60" fill="#e5e7eb" rx="4"/>
  <text x="400" y="400" text-anchor="middle" fill="#6b7280" font-size="14">Drag & Drop Images</text>
  
  <circle cx="200" cy="215" r="15" fill="#10b981"/>
  <text x="200" y="219" text-anchor="middle" fill="white" font-size="12">→</text>
  <circle cx="520" cy="215" r="15" fill="#10b981"/>
  <text x="520" y="219" text-anchor="middle" fill="white" font-size="12">→</text>
</svg>
