<svg width="800" height="450" xmlns="http://www.w3.org/2000/svg">
  <rect width="800" height="450" fill="#f9fafb"/>
  <rect x="20" y="20" width="760" height="410" fill="white" rx="8"/>
  <rect x="40" y="40" width="720" height="60" fill="#1f2937" rx="4"/>
  <rect x="40" y="120" width="340" height="280" fill="#f9fafb" rx="4"/>
  <rect x="400" y="120" width="340" height="280" fill="#f9fafb" rx="4"/>
  <rect x="60" y="150" width="60" height="40" fill="#e5e7eb" rx="4"/>
  <rect x="60" y="210" width="60" height="40" fill="#e5e7eb" rx="4"/>
  <rect x="60" y="270" width="60" height="40" fill="#e5e7eb" rx="4"/>
  <rect x="140" y="155" width="240" height="30" fill="#d1d5db" rx="2"/>
  <rect x="140" y="195" width="240" height="30" fill="#d1d5db" rx="2"/>
  <rect x="140" y="235" width="240" height="30" fill="#d1d5db" rx="2"/>
  <text x="150" y="145" fill="#6b7280" font-size="14" font-weight="600">Open File</text>
  <text x="150" y="185" fill="#6b7280" font-size="14" font-weight="600">Open Folder</text>
  <text x="150" y="225" fill="#6b7280" font-size="14" font-weight="600">Tail 20</text>
  <rect x="60" y="320" width="720" height="60" fill="#f3f4f6" rx="4"/>
  <rect x="80" y="335" width="200" height="30" fill="#e5e7eb" rx="4"/>
  <rect x="80" y="340" width="180" height="20" fill="#1f2937" rx="2"/>
  <text x="90" y="350" fill="#6b7280" font-size="12" font-family="monospace">Lines: 1,234</text>
  <rect x="300" y="335" width="200" height="30" fill="#e5e7eb" rx="4"/>
  <rect x="300" y="340" width="180" height="20" fill="#1f2937" rx="2"/>
  <text x="310" y="350" fill="#6b7280" font-size="12" font-family="monospace">Chars: 45,678</text>
  <rect x="520" y="335" width="200" height="30" fill="#e5e7eb" rx="4"/>
  <rect x="520" y="340" width="180" height="20" fill="#1f2937" rx="2"/>
  <text x="530" y="350" fill="#6b7280" font-size="12" font-family="monospace">Size: 44 KB</text>
  <rect x="440" y="150" width="60" height="40" fill="#10b981" rx="4"/>
  <text x="450" y="165" fill="white" font-size="10" font-weight="600">Tail</text>
  <rect x="60" y="420" width="720" height="20" fill="#e5e7eb" rx="2"/>
  <text x="400" y="430" text-anchor="middle" fill="#6b7280" font-size="16">Text File Viewer</text>
</svg>
